<mxfile host="app.diagrams.net" modified="2020-09-23T13:52:08.346Z" agent="5.0 (Macintosh; Intel Mac OS X 10_15_6) AppleWebKit/605.1.15 (KHTML, like Gecko) Version/14.0 Safari/605.1.15" etag="vS9HRDDOktNxAIcqhHTk" version="13.7.5" type="github">
  <diagram id="V4u3WdsU42qSNG51a4Sn" name="Page-1">
    <mxGraphModel dx="1773" dy="662" grid="1" gridSize="10" guides="1" tooltips="1" connect="1" arrows="1" fold="1" page="1" pageScale="1" pageWidth="827" pageHeight="1169" math="0" shadow="0">
      <root>
        <mxCell id="0" />
        <mxCell id="1" parent="0" />
        <mxCell id="ShL2HzU9Pi-76ka9v5wh-11" style="edgeStyle=orthogonalEdgeStyle;rounded=0;orthogonalLoop=1;jettySize=auto;html=1;exitX=0.5;exitY=1;exitDx=0;exitDy=0;entryX=0.5;entryY=0;entryDx=0;entryDy=0;" edge="1" parent="1" source="ShL2HzU9Pi-76ka9v5wh-1" target="ShL2HzU9Pi-76ka9v5wh-2">
          <mxGeometry relative="1" as="geometry" />
        </mxCell>
        <mxCell id="ShL2HzU9Pi-76ka9v5wh-1" value="Start" style="ellipse;whiteSpace=wrap;html=1;" vertex="1" parent="1">
          <mxGeometry x="350" y="20" width="120" height="80" as="geometry" />
        </mxCell>
        <mxCell id="ShL2HzU9Pi-76ka9v5wh-10" style="edgeStyle=orthogonalEdgeStyle;rounded=0;orthogonalLoop=1;jettySize=auto;html=1;exitX=0.5;exitY=1;exitDx=0;exitDy=0;entryX=0.5;entryY=0;entryDx=0;entryDy=0;" edge="1" parent="1" source="ShL2HzU9Pi-76ka9v5wh-2" target="ShL2HzU9Pi-76ka9v5wh-3">
          <mxGeometry relative="1" as="geometry" />
        </mxCell>
        <mxCell id="ShL2HzU9Pi-76ka9v5wh-2" value="Ask user to input password" style="whiteSpace=wrap;html=1;aspect=fixed;" vertex="1" parent="1">
          <mxGeometry x="370" y="120" width="80" height="80" as="geometry" />
        </mxCell>
        <mxCell id="ShL2HzU9Pi-76ka9v5wh-6" style="edgeStyle=orthogonalEdgeStyle;rounded=0;orthogonalLoop=1;jettySize=auto;html=1;exitX=1;exitY=0.5;exitDx=0;exitDy=0;entryX=0.5;entryY=0;entryDx=0;entryDy=0;" edge="1" parent="1" source="ShL2HzU9Pi-76ka9v5wh-3" target="ShL2HzU9Pi-76ka9v5wh-5">
          <mxGeometry relative="1" as="geometry" />
        </mxCell>
        <mxCell id="ShL2HzU9Pi-76ka9v5wh-8" value="True" style="edgeLabel;html=1;align=center;verticalAlign=middle;resizable=0;points=[];" vertex="1" connectable="0" parent="ShL2HzU9Pi-76ka9v5wh-6">
          <mxGeometry x="-0.12" y="-2" relative="1" as="geometry">
            <mxPoint as="offset" />
          </mxGeometry>
        </mxCell>
        <mxCell id="ShL2HzU9Pi-76ka9v5wh-7" style="edgeStyle=orthogonalEdgeStyle;rounded=0;orthogonalLoop=1;jettySize=auto;html=1;exitX=0;exitY=0.5;exitDx=0;exitDy=0;entryX=0.5;entryY=0;entryDx=0;entryDy=0;" edge="1" parent="1" source="ShL2HzU9Pi-76ka9v5wh-3" target="ShL2HzU9Pi-76ka9v5wh-4">
          <mxGeometry relative="1" as="geometry" />
        </mxCell>
        <mxCell id="ShL2HzU9Pi-76ka9v5wh-9" value="False" style="edgeLabel;html=1;align=center;verticalAlign=middle;resizable=0;points=[];" vertex="1" connectable="0" parent="ShL2HzU9Pi-76ka9v5wh-7">
          <mxGeometry x="-0.2" y="1" relative="1" as="geometry">
            <mxPoint as="offset" />
          </mxGeometry>
        </mxCell>
        <mxCell id="ShL2HzU9Pi-76ka9v5wh-3" value="inputPassword.length() == 3" style="rhombus;whiteSpace=wrap;html=1;" vertex="1" parent="1">
          <mxGeometry x="355" y="220" width="110" height="110" as="geometry" />
        </mxCell>
        <mxCell id="ShL2HzU9Pi-76ka9v5wh-4" value="Print &quot;invalid password run again" style="rounded=0;whiteSpace=wrap;html=1;" vertex="1" parent="1">
          <mxGeometry x="280" y="350" width="120" height="60" as="geometry" />
        </mxCell>
        <mxCell id="ShL2HzU9Pi-76ka9v5wh-36" style="edgeStyle=orthogonalEdgeStyle;rounded=0;orthogonalLoop=1;jettySize=auto;html=1;exitX=0.5;exitY=1;exitDx=0;exitDy=0;" edge="1" parent="1" source="ShL2HzU9Pi-76ka9v5wh-5" target="ShL2HzU9Pi-76ka9v5wh-12">
          <mxGeometry relative="1" as="geometry" />
        </mxCell>
        <mxCell id="ShL2HzU9Pi-76ka9v5wh-5" value="Print valid 3 character" style="rounded=0;whiteSpace=wrap;html=1;" vertex="1" parent="1">
          <mxGeometry x="420" y="350" width="120" height="60" as="geometry" />
        </mxCell>
        <mxCell id="ShL2HzU9Pi-76ka9v5wh-15" style="edgeStyle=orthogonalEdgeStyle;rounded=0;orthogonalLoop=1;jettySize=auto;html=1;exitX=1;exitY=0.5;exitDx=0;exitDy=0;entryX=0.617;entryY=0.033;entryDx=0;entryDy=0;entryPerimeter=0;" edge="1" parent="1" source="ShL2HzU9Pi-76ka9v5wh-12" target="ShL2HzU9Pi-76ka9v5wh-14">
          <mxGeometry relative="1" as="geometry" />
        </mxCell>
        <mxCell id="ShL2HzU9Pi-76ka9v5wh-17" value="yes" style="edgeLabel;html=1;align=center;verticalAlign=middle;resizable=0;points=[];" vertex="1" connectable="0" parent="ShL2HzU9Pi-76ka9v5wh-15">
          <mxGeometry x="-0.1885" y="-1" relative="1" as="geometry">
            <mxPoint as="offset" />
          </mxGeometry>
        </mxCell>
        <mxCell id="ShL2HzU9Pi-76ka9v5wh-16" style="edgeStyle=orthogonalEdgeStyle;rounded=0;orthogonalLoop=1;jettySize=auto;html=1;exitX=0;exitY=0.5;exitDx=0;exitDy=0;entryX=0.5;entryY=0;entryDx=0;entryDy=0;" edge="1" parent="1" source="ShL2HzU9Pi-76ka9v5wh-12" target="ShL2HzU9Pi-76ka9v5wh-19">
          <mxGeometry relative="1" as="geometry">
            <mxPoint x="405" y="570" as="targetPoint" />
          </mxGeometry>
        </mxCell>
        <mxCell id="ShL2HzU9Pi-76ka9v5wh-18" value="no" style="edgeLabel;html=1;align=center;verticalAlign=middle;resizable=0;points=[];" vertex="1" connectable="0" parent="ShL2HzU9Pi-76ka9v5wh-16">
          <mxGeometry x="-0.1048" relative="1" as="geometry">
            <mxPoint as="offset" />
          </mxGeometry>
        </mxCell>
        <mxCell id="ShL2HzU9Pi-76ka9v5wh-12" value="is character 1 uppercase" style="rhombus;whiteSpace=wrap;html=1;" vertex="1" parent="1">
          <mxGeometry x="420" y="430" width="120" height="120" as="geometry" />
        </mxCell>
        <mxCell id="ShL2HzU9Pi-76ka9v5wh-38" style="edgeStyle=orthogonalEdgeStyle;rounded=0;orthogonalLoop=1;jettySize=auto;html=1;exitX=0.5;exitY=1;exitDx=0;exitDy=0;entryX=0.5;entryY=0;entryDx=0;entryDy=0;" edge="1" parent="1" source="ShL2HzU9Pi-76ka9v5wh-14" target="ShL2HzU9Pi-76ka9v5wh-37">
          <mxGeometry relative="1" as="geometry" />
        </mxCell>
        <mxCell id="ShL2HzU9Pi-76ka9v5wh-14" value="valid contains one uppercase" style="rounded=0;whiteSpace=wrap;html=1;" vertex="1" parent="1">
          <mxGeometry x="530" y="570" width="120" height="60" as="geometry" />
        </mxCell>
        <mxCell id="ShL2HzU9Pi-76ka9v5wh-21" style="edgeStyle=orthogonalEdgeStyle;rounded=0;orthogonalLoop=1;jettySize=auto;html=1;exitX=1;exitY=0.5;exitDx=0;exitDy=0;entryX=0.5;entryY=0;entryDx=0;entryDy=0;" edge="1" parent="1" source="ShL2HzU9Pi-76ka9v5wh-19" target="ShL2HzU9Pi-76ka9v5wh-20">
          <mxGeometry relative="1" as="geometry">
            <mxPoint x="395" y="690" as="targetPoint" />
          </mxGeometry>
        </mxCell>
        <mxCell id="ShL2HzU9Pi-76ka9v5wh-22" value="yes" style="edgeLabel;html=1;align=center;verticalAlign=middle;resizable=0;points=[];" vertex="1" connectable="0" parent="ShL2HzU9Pi-76ka9v5wh-21">
          <mxGeometry x="-0.0182" y="-3" relative="1" as="geometry">
            <mxPoint as="offset" />
          </mxGeometry>
        </mxCell>
        <mxCell id="ShL2HzU9Pi-76ka9v5wh-23" style="edgeStyle=orthogonalEdgeStyle;rounded=0;orthogonalLoop=1;jettySize=auto;html=1;exitX=0;exitY=0.5;exitDx=0;exitDy=0;" edge="1" parent="1" source="ShL2HzU9Pi-76ka9v5wh-19" target="ShL2HzU9Pi-76ka9v5wh-24">
          <mxGeometry relative="1" as="geometry">
            <mxPoint x="320" y="720" as="targetPoint" />
          </mxGeometry>
        </mxCell>
        <mxCell id="ShL2HzU9Pi-76ka9v5wh-25" value="no" style="edgeLabel;html=1;align=center;verticalAlign=middle;resizable=0;points=[];" vertex="1" connectable="0" parent="ShL2HzU9Pi-76ka9v5wh-23">
          <mxGeometry x="-0.275" y="7" relative="1" as="geometry">
            <mxPoint as="offset" />
          </mxGeometry>
        </mxCell>
        <mxCell id="ShL2HzU9Pi-76ka9v5wh-19" value="is character 2&amp;nbsp;&lt;br&gt;uppercase" style="rhombus;whiteSpace=wrap;html=1;" vertex="1" parent="1">
          <mxGeometry x="260" y="590" width="105" height="100" as="geometry" />
        </mxCell>
        <mxCell id="ShL2HzU9Pi-76ka9v5wh-55" style="edgeStyle=orthogonalEdgeStyle;rounded=0;orthogonalLoop=1;jettySize=auto;html=1;exitX=0.5;exitY=1;exitDx=0;exitDy=0;entryX=0.5;entryY=0;entryDx=0;entryDy=0;" edge="1" parent="1" source="ShL2HzU9Pi-76ka9v5wh-20" target="ShL2HzU9Pi-76ka9v5wh-54">
          <mxGeometry relative="1" as="geometry" />
        </mxCell>
        <mxCell id="ShL2HzU9Pi-76ka9v5wh-20" value="&lt;span&gt;valid contains one uppercase&lt;/span&gt;" style="rounded=0;whiteSpace=wrap;html=1;" vertex="1" parent="1">
          <mxGeometry x="280" y="710" width="120" height="60" as="geometry" />
        </mxCell>
        <mxCell id="ShL2HzU9Pi-76ka9v5wh-30" style="edgeStyle=orthogonalEdgeStyle;rounded=0;orthogonalLoop=1;jettySize=auto;html=1;exitX=1;exitY=0.5;exitDx=0;exitDy=0;entryX=0.5;entryY=0;entryDx=0;entryDy=0;" edge="1" parent="1" source="ShL2HzU9Pi-76ka9v5wh-24" target="ShL2HzU9Pi-76ka9v5wh-35">
          <mxGeometry relative="1" as="geometry">
            <mxPoint x="10" y="820" as="targetPoint" />
          </mxGeometry>
        </mxCell>
        <mxCell id="ShL2HzU9Pi-76ka9v5wh-34" value="yes" style="edgeLabel;html=1;align=center;verticalAlign=middle;resizable=0;points=[];" vertex="1" connectable="0" parent="ShL2HzU9Pi-76ka9v5wh-30">
          <mxGeometry x="0.1333" relative="1" as="geometry">
            <mxPoint as="offset" />
          </mxGeometry>
        </mxCell>
        <mxCell id="ShL2HzU9Pi-76ka9v5wh-31" style="edgeStyle=orthogonalEdgeStyle;rounded=0;orthogonalLoop=1;jettySize=auto;html=1;exitX=0;exitY=0.5;exitDx=0;exitDy=0;entryX=0.5;entryY=0;entryDx=0;entryDy=0;" edge="1" parent="1" source="ShL2HzU9Pi-76ka9v5wh-24" target="ShL2HzU9Pi-76ka9v5wh-26">
          <mxGeometry relative="1" as="geometry" />
        </mxCell>
        <mxCell id="ShL2HzU9Pi-76ka9v5wh-32" value="no" style="edgeLabel;html=1;align=center;verticalAlign=middle;resizable=0;points=[];" vertex="1" connectable="0" parent="ShL2HzU9Pi-76ka9v5wh-31">
          <mxGeometry x="-0.2727" y="18" relative="1" as="geometry">
            <mxPoint x="-13" y="-18" as="offset" />
          </mxGeometry>
        </mxCell>
        <mxCell id="ShL2HzU9Pi-76ka9v5wh-24" value="is character 3&amp;nbsp;&lt;br&gt;uppercase" style="rhombus;whiteSpace=wrap;html=1;" vertex="1" parent="1">
          <mxGeometry x="-230" y="700" width="110" height="100" as="geometry" />
        </mxCell>
        <mxCell id="ShL2HzU9Pi-76ka9v5wh-26" value="invalid doesn&#39;t contain uppercase letter run again" style="rounded=0;whiteSpace=wrap;html=1;" vertex="1" parent="1">
          <mxGeometry x="-350" y="820" width="120" height="60" as="geometry" />
        </mxCell>
        <mxCell id="ShL2HzU9Pi-76ka9v5wh-72" style="edgeStyle=orthogonalEdgeStyle;rounded=0;orthogonalLoop=1;jettySize=auto;html=1;exitX=0.5;exitY=1;exitDx=0;exitDy=0;entryX=0.5;entryY=0;entryDx=0;entryDy=0;" edge="1" parent="1" source="ShL2HzU9Pi-76ka9v5wh-35" target="ShL2HzU9Pi-76ka9v5wh-68">
          <mxGeometry relative="1" as="geometry" />
        </mxCell>
        <mxCell id="ShL2HzU9Pi-76ka9v5wh-35" value="&lt;span&gt;valid contains one uppercase&lt;/span&gt;" style="rounded=0;whiteSpace=wrap;html=1;" vertex="1" parent="1">
          <mxGeometry x="-60" y="820" width="120" height="60" as="geometry" />
        </mxCell>
        <mxCell id="ShL2HzU9Pi-76ka9v5wh-40" style="edgeStyle=orthogonalEdgeStyle;rounded=0;orthogonalLoop=1;jettySize=auto;html=1;exitX=1;exitY=0.5;exitDx=0;exitDy=0;entryX=0.5;entryY=0;entryDx=0;entryDy=0;" edge="1" parent="1" source="ShL2HzU9Pi-76ka9v5wh-37" target="ShL2HzU9Pi-76ka9v5wh-39">
          <mxGeometry relative="1" as="geometry" />
        </mxCell>
        <mxCell id="ShL2HzU9Pi-76ka9v5wh-44" value="yes" style="edgeLabel;html=1;align=center;verticalAlign=middle;resizable=0;points=[];" vertex="1" connectable="0" parent="ShL2HzU9Pi-76ka9v5wh-40">
          <mxGeometry x="0.0105" y="-5" relative="1" as="geometry">
            <mxPoint as="offset" />
          </mxGeometry>
        </mxCell>
        <mxCell id="ShL2HzU9Pi-76ka9v5wh-42" style="edgeStyle=orthogonalEdgeStyle;rounded=0;orthogonalLoop=1;jettySize=auto;html=1;exitX=0;exitY=0.5;exitDx=0;exitDy=0;entryX=0.5;entryY=0;entryDx=0;entryDy=0;" edge="1" parent="1" source="ShL2HzU9Pi-76ka9v5wh-37" target="ShL2HzU9Pi-76ka9v5wh-45">
          <mxGeometry relative="1" as="geometry">
            <mxPoint x="570" y="720" as="targetPoint" />
          </mxGeometry>
        </mxCell>
        <mxCell id="ShL2HzU9Pi-76ka9v5wh-43" value="no" style="edgeLabel;html=1;align=center;verticalAlign=middle;resizable=0;points=[];" vertex="1" connectable="0" parent="ShL2HzU9Pi-76ka9v5wh-42">
          <mxGeometry x="-0.0769" y="10" relative="1" as="geometry">
            <mxPoint x="-11" y="10" as="offset" />
          </mxGeometry>
        </mxCell>
        <mxCell id="ShL2HzU9Pi-76ka9v5wh-37" value="is character 2&lt;br&gt;a digit" style="rhombus;whiteSpace=wrap;html=1;" vertex="1" parent="1">
          <mxGeometry x="600" y="640" width="100" height="90" as="geometry" />
        </mxCell>
        <mxCell id="ShL2HzU9Pi-76ka9v5wh-39" value="Password entered contains all password requirements" style="rounded=0;whiteSpace=wrap;html=1;" vertex="1" parent="1">
          <mxGeometry x="690" y="730" width="120" height="60" as="geometry" />
        </mxCell>
        <mxCell id="ShL2HzU9Pi-76ka9v5wh-47" style="edgeStyle=orthogonalEdgeStyle;rounded=0;orthogonalLoop=1;jettySize=auto;html=1;exitX=1;exitY=0.5;exitDx=0;exitDy=0;" edge="1" parent="1" source="ShL2HzU9Pi-76ka9v5wh-45" target="ShL2HzU9Pi-76ka9v5wh-46">
          <mxGeometry relative="1" as="geometry" />
        </mxCell>
        <mxCell id="ShL2HzU9Pi-76ka9v5wh-48" value="yes" style="edgeLabel;html=1;align=center;verticalAlign=middle;resizable=0;points=[];" vertex="1" connectable="0" parent="ShL2HzU9Pi-76ka9v5wh-47">
          <mxGeometry x="0.1556" y="-2" relative="1" as="geometry">
            <mxPoint as="offset" />
          </mxGeometry>
        </mxCell>
        <mxCell id="ShL2HzU9Pi-76ka9v5wh-50" style="edgeStyle=orthogonalEdgeStyle;rounded=0;orthogonalLoop=1;jettySize=auto;html=1;exitX=0;exitY=0.5;exitDx=0;exitDy=0;entryX=0.5;entryY=0;entryDx=0;entryDy=0;" edge="1" parent="1" source="ShL2HzU9Pi-76ka9v5wh-45" target="ShL2HzU9Pi-76ka9v5wh-49">
          <mxGeometry relative="1" as="geometry">
            <Array as="points">
              <mxPoint x="520" y="810" />
              <mxPoint x="520" y="810" />
            </Array>
          </mxGeometry>
        </mxCell>
        <mxCell id="ShL2HzU9Pi-76ka9v5wh-51" value="no" style="edgeLabel;html=1;align=center;verticalAlign=middle;resizable=0;points=[];" vertex="1" connectable="0" parent="ShL2HzU9Pi-76ka9v5wh-50">
          <mxGeometry x="0.0769" y="-6" relative="1" as="geometry">
            <mxPoint x="5" y="-6" as="offset" />
          </mxGeometry>
        </mxCell>
        <mxCell id="ShL2HzU9Pi-76ka9v5wh-45" value="is character 3 a digit" style="rhombus;whiteSpace=wrap;html=1;" vertex="1" parent="1">
          <mxGeometry x="520" y="730" width="100" height="90" as="geometry" />
        </mxCell>
        <mxCell id="ShL2HzU9Pi-76ka9v5wh-46" value="Password entered contains all password requirements" style="rounded=0;whiteSpace=wrap;html=1;" vertex="1" parent="1">
          <mxGeometry x="600" y="840" width="110" height="60" as="geometry" />
        </mxCell>
        <mxCell id="ShL2HzU9Pi-76ka9v5wh-49" value="Password doesn&#39;t contain a digit run again" style="rounded=0;whiteSpace=wrap;html=1;" vertex="1" parent="1">
          <mxGeometry x="460" y="840" width="120" height="60" as="geometry" />
        </mxCell>
        <mxCell id="ShL2HzU9Pi-76ka9v5wh-57" style="edgeStyle=orthogonalEdgeStyle;rounded=0;orthogonalLoop=1;jettySize=auto;html=1;exitX=1;exitY=0.5;exitDx=0;exitDy=0;entryX=0.5;entryY=0;entryDx=0;entryDy=0;" edge="1" parent="1" source="ShL2HzU9Pi-76ka9v5wh-54" target="ShL2HzU9Pi-76ka9v5wh-56">
          <mxGeometry relative="1" as="geometry" />
        </mxCell>
        <mxCell id="ShL2HzU9Pi-76ka9v5wh-58" value="yes" style="edgeLabel;html=1;align=center;verticalAlign=middle;resizable=0;points=[];" vertex="1" connectable="0" parent="ShL2HzU9Pi-76ka9v5wh-57">
          <mxGeometry x="0.2" y="-4" relative="1" as="geometry">
            <mxPoint as="offset" />
          </mxGeometry>
        </mxCell>
        <mxCell id="ShL2HzU9Pi-76ka9v5wh-60" style="edgeStyle=orthogonalEdgeStyle;rounded=0;orthogonalLoop=1;jettySize=auto;html=1;exitX=0;exitY=0.5;exitDx=0;exitDy=0;entryX=0.5;entryY=0;entryDx=0;entryDy=0;" edge="1" parent="1" source="ShL2HzU9Pi-76ka9v5wh-54" target="ShL2HzU9Pi-76ka9v5wh-59">
          <mxGeometry relative="1" as="geometry" />
        </mxCell>
        <mxCell id="ShL2HzU9Pi-76ka9v5wh-65" value="no" style="edgeLabel;html=1;align=center;verticalAlign=middle;resizable=0;points=[];" vertex="1" connectable="0" parent="ShL2HzU9Pi-76ka9v5wh-60">
          <mxGeometry x="0.1059" y="2" relative="1" as="geometry">
            <mxPoint as="offset" />
          </mxGeometry>
        </mxCell>
        <mxCell id="ShL2HzU9Pi-76ka9v5wh-54" value="is character 1 a digit" style="rhombus;whiteSpace=wrap;html=1;" vertex="1" parent="1">
          <mxGeometry x="285" y="810" width="110" height="90" as="geometry" />
        </mxCell>
        <mxCell id="ShL2HzU9Pi-76ka9v5wh-56" value="password entered contains all password requirements" style="rounded=0;whiteSpace=wrap;html=1;" vertex="1" parent="1">
          <mxGeometry x="360" y="930" width="120" height="60" as="geometry" />
        </mxCell>
        <mxCell id="ShL2HzU9Pi-76ka9v5wh-63" style="edgeStyle=orthogonalEdgeStyle;rounded=0;orthogonalLoop=1;jettySize=auto;html=1;exitX=1;exitY=0.5;exitDx=0;exitDy=0;entryX=0.5;entryY=0;entryDx=0;entryDy=0;" edge="1" parent="1" source="ShL2HzU9Pi-76ka9v5wh-59" target="ShL2HzU9Pi-76ka9v5wh-61">
          <mxGeometry relative="1" as="geometry" />
        </mxCell>
        <mxCell id="ShL2HzU9Pi-76ka9v5wh-66" value="yes" style="edgeLabel;html=1;align=center;verticalAlign=middle;resizable=0;points=[];" vertex="1" connectable="0" parent="ShL2HzU9Pi-76ka9v5wh-63">
          <mxGeometry x="-0.0526" y="-1" relative="1" as="geometry">
            <mxPoint as="offset" />
          </mxGeometry>
        </mxCell>
        <mxCell id="ShL2HzU9Pi-76ka9v5wh-64" style="edgeStyle=orthogonalEdgeStyle;rounded=0;orthogonalLoop=1;jettySize=auto;html=1;exitX=0;exitY=0.5;exitDx=0;exitDy=0;" edge="1" parent="1" source="ShL2HzU9Pi-76ka9v5wh-59" target="ShL2HzU9Pi-76ka9v5wh-62">
          <mxGeometry relative="1" as="geometry" />
        </mxCell>
        <mxCell id="ShL2HzU9Pi-76ka9v5wh-59" value="is character 3 a digit" style="rhombus;whiteSpace=wrap;html=1;" vertex="1" parent="1">
          <mxGeometry x="210" y="910" width="90" height="90" as="geometry" />
        </mxCell>
        <mxCell id="ShL2HzU9Pi-76ka9v5wh-61" value="&lt;span&gt;password entered contains all password requirements&lt;/span&gt;" style="rounded=0;whiteSpace=wrap;html=1;" vertex="1" parent="1">
          <mxGeometry x="260" y="1030" width="120" height="60" as="geometry" />
        </mxCell>
        <mxCell id="ShL2HzU9Pi-76ka9v5wh-62" value="&lt;span&gt;Password doesn&#39;t contain a digit run program again&lt;/span&gt;" style="rounded=0;whiteSpace=wrap;html=1;" vertex="1" parent="1">
          <mxGeometry x="110" y="1030" width="120" height="60" as="geometry" />
        </mxCell>
        <mxCell id="ShL2HzU9Pi-76ka9v5wh-67" value="no" style="text;html=1;align=center;verticalAlign=middle;resizable=0;points=[];autosize=1;" vertex="1" parent="1">
          <mxGeometry x="155" y="980" width="30" height="20" as="geometry" />
        </mxCell>
        <mxCell id="ShL2HzU9Pi-76ka9v5wh-71" style="edgeStyle=orthogonalEdgeStyle;rounded=0;orthogonalLoop=1;jettySize=auto;html=1;exitX=1;exitY=0.5;exitDx=0;exitDy=0;entryX=0.567;entryY=-0.017;entryDx=0;entryDy=0;entryPerimeter=0;" edge="1" parent="1" source="ShL2HzU9Pi-76ka9v5wh-68" target="ShL2HzU9Pi-76ka9v5wh-70">
          <mxGeometry relative="1" as="geometry" />
        </mxCell>
        <mxCell id="ShL2HzU9Pi-76ka9v5wh-76" value="yes" style="edgeLabel;html=1;align=center;verticalAlign=middle;resizable=0;points=[];" vertex="1" connectable="0" parent="ShL2HzU9Pi-76ka9v5wh-71">
          <mxGeometry x="-0.1508" y="3" relative="1" as="geometry">
            <mxPoint as="offset" />
          </mxGeometry>
        </mxCell>
        <mxCell id="ShL2HzU9Pi-76ka9v5wh-74" style="edgeStyle=orthogonalEdgeStyle;rounded=0;orthogonalLoop=1;jettySize=auto;html=1;exitX=0;exitY=0.5;exitDx=0;exitDy=0;" edge="1" parent="1" source="ShL2HzU9Pi-76ka9v5wh-68">
          <mxGeometry relative="1" as="geometry">
            <mxPoint x="-110" y="1020" as="targetPoint" />
          </mxGeometry>
        </mxCell>
        <mxCell id="ShL2HzU9Pi-76ka9v5wh-75" value="no" style="edgeLabel;html=1;align=center;verticalAlign=middle;resizable=0;points=[];" vertex="1" connectable="0" parent="ShL2HzU9Pi-76ka9v5wh-74">
          <mxGeometry x="-0.264" y="23" relative="1" as="geometry">
            <mxPoint as="offset" />
          </mxGeometry>
        </mxCell>
        <mxCell id="ShL2HzU9Pi-76ka9v5wh-68" value="is character 1 a digit" style="rhombus;whiteSpace=wrap;html=1;" vertex="1" parent="1">
          <mxGeometry x="-60" y="900" width="90" height="90" as="geometry" />
        </mxCell>
        <mxCell id="ShL2HzU9Pi-76ka9v5wh-70" value="&lt;span&gt;password entered contains all password requirements&lt;/span&gt;" style="rounded=0;whiteSpace=wrap;html=1;" vertex="1" parent="1">
          <mxGeometry x="-30" y="1020" width="120" height="60" as="geometry" />
        </mxCell>
        <mxCell id="ShL2HzU9Pi-76ka9v5wh-80" style="edgeStyle=orthogonalEdgeStyle;rounded=0;orthogonalLoop=1;jettySize=auto;html=1;exitX=1;exitY=0.5;exitDx=0;exitDy=0;entryX=0.5;entryY=0;entryDx=0;entryDy=0;" edge="1" parent="1" source="ShL2HzU9Pi-76ka9v5wh-77" target="ShL2HzU9Pi-76ka9v5wh-79">
          <mxGeometry relative="1" as="geometry">
            <Array as="points">
              <mxPoint x="-50" y="1060" />
              <mxPoint x="-50" y="1140" />
            </Array>
          </mxGeometry>
        </mxCell>
        <mxCell id="ShL2HzU9Pi-76ka9v5wh-81" value="yes" style="edgeLabel;html=1;align=center;verticalAlign=middle;resizable=0;points=[];" vertex="1" connectable="0" parent="ShL2HzU9Pi-76ka9v5wh-80">
          <mxGeometry x="-0.0667" y="1" relative="1" as="geometry">
            <mxPoint as="offset" />
          </mxGeometry>
        </mxCell>
        <mxCell id="ShL2HzU9Pi-76ka9v5wh-83" style="edgeStyle=orthogonalEdgeStyle;rounded=0;orthogonalLoop=1;jettySize=auto;html=1;exitX=0;exitY=0.5;exitDx=0;exitDy=0;" edge="1" parent="1" source="ShL2HzU9Pi-76ka9v5wh-77" target="ShL2HzU9Pi-76ka9v5wh-82">
          <mxGeometry relative="1" as="geometry" />
        </mxCell>
        <mxCell id="ShL2HzU9Pi-76ka9v5wh-84" value="no" style="edgeLabel;html=1;align=center;verticalAlign=middle;resizable=0;points=[];" vertex="1" connectable="0" parent="ShL2HzU9Pi-76ka9v5wh-83">
          <mxGeometry x="-0.3333" y="21" relative="1" as="geometry">
            <mxPoint x="-21" y="21" as="offset" />
          </mxGeometry>
        </mxCell>
        <mxCell id="ShL2HzU9Pi-76ka9v5wh-77" value="is character 2 a digit" style="rhombus;whiteSpace=wrap;html=1;" vertex="1" parent="1">
          <mxGeometry x="-150" y="1020" width="80" height="80" as="geometry" />
        </mxCell>
        <mxCell id="ShL2HzU9Pi-76ka9v5wh-79" value="&lt;span&gt;password entered contains all password requirements&lt;/span&gt;" style="rounded=0;whiteSpace=wrap;html=1;" vertex="1" parent="1">
          <mxGeometry x="-90" y="1140" width="120" height="60" as="geometry" />
        </mxCell>
        <mxCell id="ShL2HzU9Pi-76ka9v5wh-82" value="password doesn&#39;t contain a digit run program again" style="rounded=0;whiteSpace=wrap;html=1;" vertex="1" parent="1">
          <mxGeometry x="-250" y="1140" width="120" height="60" as="geometry" />
        </mxCell>
      </root>
    </mxGraphModel>
  </diagram>
</mxfile>
